{
  "accessors": [
    {
      "bufferView": 2,
      "componentType": 5126,
      "count": 65532,
      "max": [
        2.7102460861206055,
        7.0121469497680664,
        0.89316898584365845
      ],
      "min": [
        1.0570830106735229,
        5.7987880706787109,
        -0.1217230036854744
      ],
      "type": "VEC3"
    },
    {
      "bufferView": 2,
      "byteOffset": 786384,
      "componentType": 5126,
      "count": 65532,
      "max": [
        0.99985069036483765,
        0.9996064305305481,
        0.99930906295776367
      ],
      "min": [
        -0.99963676929473877,
        -0.99977254867553711,
        -0.99993932247161865
      ],
      "type": "VEC3"
    },
    {
      "bufferView": 1,
      "componentType": 5126,
      "count": 65532,
      "max": [
        0.99995499849319458,
        0.96631598472595215
      ],
      "min": [
        0,
        0.0030549999792128801
      ],
      "type": "VEC2"
    },
    {
      "bufferView": 0,
      "componentType": 5125,
      "count": 344970,
      "max": [
        65531
      ],
      "min": [
        0
      ],
      "type": "SCALAR"
    },
    {
      "bufferView": 2,
      "byteOffset": 1572768,
      "componentType": 5126,
      "count": 65532,
      "max": [
        2.7102460861206055,
        7.0096039772033691,
        0.8899570107460022
      ],
      "min": [
        1.0538359880447388,
        5.8141398429870605,
        -0.10573799908161163
      ],
      "type": "VEC3"
    },
    {
      "bufferView": 2,
      "byteOffset": 2359152,
      "componentType": 5126,
      "count": 65532,
      "max": [
        0.99985891580581665,
        0.99973440170288086,
        0.99996614456176758
      ],
      "min": [
        -0.98966431617736816,
        -0.99975687265396118,
        -0.9999803900718689
      ],
      "type": "VEC3"
    },
    {
      "bufferView": 1,
      "byteOffset": 524256,
      "componentType": 5126,
      "count": 65532,
      "max": [
        1,
        0.97499001026153564
      ],
      "min": [
        0,
        0.00026500000967644155
      ],
      "type": "VEC2"
    },
    {
      "bufferView": 0,
      "byteOffset": 1379880,
      "componentType": 5125,
      "count": 334464,
      "max": [
        65531
      ],
      "min": [
        0
      ],
      "type": "SCALAR"
    },
    {
      "bufferView": 2,
      "byteOffset": 3145536,
      "componentType": 5126,
      "count": 52596,
      "max": [
        2.7084848880767822,
        7.0121469497680664,
        0.89316898584365845
      ],
      "min": [
        1.1666580438613892,
        5.7987880706787109,
        -0.1217230036854744
      ],
      "type": "VEC3"
    },
    {
      "bufferView": 2,
      "byteOffset": 3776688,
      "componentType": 5126,
      "count": 52596,
      "max": [
        0.99938714504241943,
        0.99820107221603394,
        0.99996793270111084
      ],
      "min": [
        -0.99796432256698608,
        -0.99895733594894409,
        -0.9999769926071167
      ],
      "type": "VEC3"
    },
    {
      "bufferView": 1,
      "byteOffset": 1048512,
      "componentType": 5126,
      "count": 52596,
      "max": [
        0.99260097742080688,
        0.97521698474884033
      ],
      "min": [
        0,
        0.00094200001331046224
      ],
      "type": "VEC2"
    },
    {
      "bufferView": 0,
      "byteOffset": 2717736,
      "componentType": 5125,
      "count": 234711,
      "max": [
        52595
      ],
      "min": [
        0
      ],
      "type": "SCALAR"
    }
  ],
  "asset": {
    "extras": {
      "author": "VirginiaTechUnivLibraries (https://sketchfab.com/VirginiaTechUnivLibraries)",
      "license": "CC-BY-4.0 (http://creativecommons.org/licenses/by/4.0/)",
      "source": "https://sketchfab.com/3d-models/monarch-butterfly-3a5fc9a496cb402297ffdb6700d2ab60",
      "title": "Monarch Butterfly"
    },
    "generator": "Sketchfab-7.54.0",
    "version": "2.0"
  },
  "bufferViews": [
    {
      "buffer": 0,
      "byteLength": 3656580,
      "byteOffset": 0,
      "name": "floatBufferViews",
      "target": 34963
    },
    {
      "buffer": 0,
      "byteLength": 1469280,
      "byteOffset": 3656580,
      "byteStride": 8,
      "name": "floatBufferViews",
      "target": 34962
    },
    {
      "buffer": 0,
      "byteLength": 4407840,
      "byteOffset": 5125860,
      "byteStride": 12,
      "name": "floatBufferViews",
      "target": 34962
    }
  ],
  "buffers": [
    {
      "byteLength": 9533700,
      "uri": "scene.bin"
    }
  ],
  "extensionsUsed": [
    "KHR_materials_unlit"
  ],
  "images": [
    {
      "uri": "textures/highRes_VTU_ESC_000004_baseColor.png"
    }
  ],
  "materials": [
    {
      "doubleSided": false,
      "extensions": {
        "KHR_materials_unlit": {}
      },
      "name": "highRes_VTU_ESC_000004",
      "pbrMetallicRoughness": {
        "baseColorFactor": [
          1,
          1,
          1,
          1
        ],
        "baseColorTexture": {
          "index": 0,
          "texCoord": 0
        },
        "metallicFactor": 0,
        "roughnessFactor": 1
      }
    }
  ],
  "meshes": [
    {
      "primitives": [
        {
          "attributes": {
            "NORMAL": 1,
            "POSITION": 0,
            "TEXCOORD_0": 2
          },
          "indices": 3,
          "material": 0,
          "mode": 4
        }
      ]
    },
    {
      "primitives": [
        {
          "attributes": {
            "NORMAL": 5,
            "POSITION": 4,
            "TEXCOORD_0": 6
          },
          "indices": 7,
          "material": 0,
          "mode": 4
        }
      ]
    },
    {
      "primitives": [
        {
          "attributes": {
            "NORMAL": 9,
            "POSITION": 8,
            "TEXCOORD_0": 10
          },
          "indices": 11,
          "material": 0,
          "mode": 4
        }
      ]
    }
  ],
  "nodes": [
    {
      "children": [
        1
      ],
      "name": "RootNode (gltf orientation matrix)",
      "rotation": [
        -0.70710678118654746,
        -0,
        -0,
        0.70710678118654757
      ]
    },
    {
      "children": [
        2
      ],
      "matrix": [
        0.86482322216033936,
        -0.22253786027431488,
        -0.45006406307220459,
        0,
        -0.47414350509643555,
        -0.65682065486907959,
        -0.58632290363311768,
        0,
        -0.16513234376907349,
        0.72046059370040894,
        -0.67354869842529297,
        0,
        3.4754822254180908,
        10.640965461730957,
        5.3356804847717285,
        1
      ],
      "name": "RootNode (model correction matrix)"
    },
    {
      "children": [
        3,
        4,
        5
      ],
      "name": "highRes_VTU_ESC_000004.OBJ.cleaner.materialmerger.gles"
    },
    {
      "mesh": 0,
      "name": ""
    },
    {
      "mesh": 1,
      "name": ""
    },
    {
      "mesh": 2,
      "name": ""
    }
  ],
  "samplers": [
    {
      "magFilter": 9729,
      "minFilter": 9987,
      "wrapS": 10497,
      "wrapT": 10497
    }
  ],
  "scene": 0,
  "scenes": [
    {
      "name": "OSG_Scene",
      "nodes": [
        0
      ]
    }
  ],
  "textures": [
    {
      "sampler": 0,
      "source": 0
    }
  ]
}

